<?xml version="1.0" encoding="UTF-8" standalone="no"?>
<svg
   xmlns:dc="http://purl.org/dc/elements/1.1/"
   xmlns:cc="http://creativecommons.org/ns#"
   xmlns:rdf="http://www.w3.org/1999/02/22-rdf-syntax-ns#"
   xmlns:svg="http://www.w3.org/2000/svg"
   xmlns="http://www.w3.org/2000/svg"
   xmlns:sodipodi="http://sodipodi.sourceforge.net/DTD/sodipodi-0.dtd"
   xmlns:inkscape="http://www.inkscape.org/namespaces/inkscape"
   xml:space="preserve"
   enable-background="new 0 0 750 316"
   viewBox="0 0 710.44354 282.89813"
   height="282.89813"
   width="710.44354"
   y="0px"
   x="0px"
   id="Layer_3"
   version="1.1"
   inkscape:version="0.91 r13725"
   sodipodi:docname="winium-storeapps-struct.svg"
   inkscape:export-xdpi="90"
   inkscape:export-ydpi="90"
   inkscape:export-filename="/Users/nickabalov/Documents/Projects/windows-universal-app-driver/winium-storeapps-struct.png"><sodipodi:namedview
     pagecolor="#ffffff"
     bordercolor="#666666"
     borderopacity="1"
     objecttolerance="10"
     gridtolerance="10"
     guidetolerance="10"
     inkscape:pageopacity="0"
     inkscape:pageshadow="2"
     inkscape:window-width="1868"
     inkscape:window-height="1035"
     id="namedview4381"
     showgrid="false"
     inkscape:zoom="1.4290315"
     inkscape:cx="352.65041"
     inkscape:cy="114.56843"
     inkscape:window-x="52"
     inkscape:window-y="0"
     inkscape:window-maximized="1"
     inkscape:current-layer="_x31__Tests"
     fit-margin-top="0"
     fit-margin-left="0"
     fit-margin-right="0"
     fit-margin-bottom="0" /><metadata
     id="metadata141"><rdf:RDF><cc:Work
         rdf:about=""><dc:format>image/svg+xml</dc:format><dc:type
           rdf:resource="http://purl.org/dc/dcmitype/StillImage" /><dc:title></dc:title></cc:Work></rdf:RDF></metadata><defs
     id="defs139" /><g
     id="_x33__Emulator_and_App"
     transform="matrix(0.96576275,0,0,0.95735405,-7.4223698,-9.812879)"><g
       id="Emulator"><path
         id="path5"
         d="m 681.977,24.222 c 1.381,0 2.5,-1.119 2.5,-2.5 0,-1.381 -1.119,-2.5 -2.5,-2.5 l -39.75,0 c -1.381,0 -2.5,1.119 -2.5,2.5 0,1.381 1.119,2.5 2.5,2.5 l 39.75,0 z"
         inkscape:connector-curvature="0"
         style="fill:#7cb942" /><g
         id="g7"><path
           id="path9"
           d="m 742.314,294.75 c 0,5.5 -4.5,10 -10,10 l -142.427,0 c -5.5,0 -10,-4.5 -10,-10 l 0,-273.5 c 0,-5.5 4.5,-10 10,-10 l 142.428,0 c 5.5,0 10,4.5 10,10 l 0,273.5 z"
           stroke-miterlimit="10"
           inkscape:connector-curvature="0"
           style="fill:none;stroke:#7cb942;stroke-width:2;stroke-miterlimit:10" /></g><rect
         id="rect11"
         height="229.755"
         width="145.979"
         stroke-miterlimit="10"
         y="32.518002"
         x="588.11102"
         style="fill:none;stroke:#7cb942;stroke-width:2;stroke-miterlimit:10" /><text
         id="text13"
         font-size="14"
         transform="translate(647.3301,289.75)"
         style="font-size:14px;font-family:OpenSans-Bold;fill:#019d57">XDE</text>
</g><g
       id="AutomationServer"><g
         id="g16"><path
           style="fill:none;stroke:#f5eb07;stroke-width:2;stroke-miterlimit:10;stroke-dasharray:8, 4;stroke-dashoffset:0;stroke-opacity:0.99436275"
           id="path18"
           d="m 730.102,250.439 c 0,2.75 -2.25,5 -5,5 l -128,0 c -2.75,0 -5,-2.25 -5,-5 l 0,-36.877 c 0,-2.75 2.25,-5 5,-5 l 128,0 c 2.75,0 5,2.25 5,5 l 0,36.877 z"
           stroke-miterlimit="10"
           inkscape:connector-curvature="0" /></g><text
         id="text20"
         font-size="14"
         transform="translate(598.1201,235.75)"
         style="font-size:14px;font-family:OpenSans-Bold;fill:#019d57">AutomationServer</text>
</g><g
       id="AUT"><text
         id="text23"
         font-size="24"
         transform="translate(592.0986,58.9116)"
         style="font-size:24px;font-family:OpenSans;fill:#bcbec0">AUT</text>
<polygon
         id="polygon25"
         points="595.502,78.764 595.502,68.079 707.502,68.079 707.502,96.645 595.502,96.645 595.502,85.959 592.1,82.362 "
         style="fill:#bcbec0" /><polygon
         id="polygon27"
         points="726.701,110.147 726.701,105.414 614.701,105.414 614.701,122.076 726.701,122.076 726.701,117.342 730.102,113.745 "
         style="fill:#bcbec0" /><polygon
         id="polygon29"
         points="595.502,138.264 595.502,127.579 707.502,127.579 707.502,156.143 595.502,156.143 595.502,145.458 592.1,141.862 "
         style="fill:#bcbec0" /><rect
         id="rect31"
         height="16.249001"
         width="116.668"
         stroke-miterlimit="10"
         y="166.25"
         x="592.09998"
         style="fill:none;stroke:#bcbec0;stroke-width:2;stroke-miterlimit:10" /><circle
         id="circle33"
         r="8.125"
         cy="174.375"
         cx="721.15198"
         style="fill:#bcbec0" /></g></g><g
     id="_x32__Driver"
     transform="matrix(0.96576275,0,0,0.95735405,-7.4223698,-9.812879)"><g
       id="g36"><path
         id="path38"
         d="m 446.401,252.334 c 0,2.75 -2.25,5 -5,5 l -182.998,0 c -2.75,0 -5,-2.25 -5,-5 l 0,-188.667 c 0,-2.75 2.25,-5 5,-5 l 182.998,0 c 2.75,0 5,2.25 5,5 l 0,188.667 z"
         stroke-miterlimit="10"
         inkscape:connector-curvature="0"
         style="fill:none;stroke:#7cb942;stroke-width:2;stroke-miterlimit:10" /></g><text
       id="text40"
       font-size="14"
       transform="translate(261.2886,162.6689)"
       style="font-size:14px;font-family:OpenSans-Bold;fill:#019d57">Winium.StoreApps.Driver</text>
<line
       id="line42"
       y2="76.401001"
       x2="446.401"
       y1="76.401001"
       x1="253.403"
       stroke-miterlimit="10"
       style="fill:none;stroke:#7cb942;stroke-width:2;stroke-miterlimit:10" /><g
       id="g44"><rect
         id="rect46"
         height="6.6539998"
         width="6.6810002"
         stroke-miterlimit="10"
         y="64.226997"
         x="423.35999"
         style="fill:none;stroke:#7cb942;stroke-width:2;stroke-miterlimit:10" /><line
         id="line48"
         y2="70.880997"
         x2="419.224"
         y1="70.880997"
         x1="410.965"
         stroke-miterlimit="10"
         style="fill:none;stroke:#7cb942;stroke-width:2;stroke-miterlimit:10" /><g
         id="g50"><line
           id="line52"
           y2="64.200996"
           x2="441.64001"
           y1="70.867996"
           x1="434.97198"
           stroke-miterlimit="10"
           style="fill:none;stroke:#7cb942;stroke-width:2;stroke-miterlimit:10" /><line
           id="line54"
           y2="70.880997"
           x2="441.64001"
           y1="64.213997"
           x1="434.97198"
           stroke-miterlimit="10"
           style="fill:none;stroke:#7cb942;stroke-width:2;stroke-miterlimit:10" /></g></g></g><g
     id="_x32_-3"
     transform="matrix(0.96576275,0,0,0.95735405,-7.4223698,-9.812879)"><g
       id="g57"><g
         id="g59"><g
           id="g61"><line
             id="line63"
             y2="225"
             x2="567.30298"
             y1="225"
             x1="459.521"
             stroke-miterlimit="10"
             style="fill:none;stroke:#f5eb07;stroke-width:2;stroke-miterlimit:10" /><g
             id="g65"><polygon
               id="polygon67"
               points="461.502,221.973 461.502,227.783 450.661,224.88 "
               style="fill:#f5eb07" /></g><g
             id="g69"><polygon
               id="polygon71"
               points="565.321,221.973 565.321,227.783 576.162,224.88 "
               style="fill:#f5eb07" /></g></g></g><text
         id="text73"
         transform="translate(477.7568,219.3838)"><tspan
           id="tspan75"
           font-size="12"
           y="0"
           x="0"
           style="font-size:12px;font-family:OpenSans-Bold;fill:#019d57">Internal API</tspan><tspan
           id="tspan77"
           font-size="12"
           y="18"
           x="5.3909998"
           style="font-size:12px;font-family:OpenSans-Bold;fill:#019d57">over HTTP</tspan></text>
</g><g
       id="g79"><g
         id="g81"><g
           id="g83"><line
             id="line85"
             y2="91.000999"
             x2="567.30298"
             y1="91.000999"
             x1="459.51999"
             stroke-miterlimit="10"
             style="fill:none;stroke:#f5eb07;stroke-width:2;stroke-miterlimit:10" /><g
             id="g87"><polygon
               id="polygon89"
               points="461.501,87.974 461.501,93.784 450.66,90.881 "
               style="fill:#f5eb07" /></g><g
             id="g91"><polygon
               id="polygon93"
               points="565.321,87.974 565.321,93.784 576.162,90.881 "
               style="fill:#f5eb07" /></g></g></g><text
         id="text95"
         transform="translate(455.98,85.3838)"><tspan
           id="tspan97"
           font-size="12"
           y="0"
           x="0"
           style="font-size:12px;font-family:OpenSans-Bold;fill:#019d57">XdeVirtualMachine</tspan><tspan
           id="tspan99"
           font-size="12"
           y="18"
           x="47.537998"
           style="font-size:12px;font-family:OpenSans-Bold;fill:#019d57">API</tspan></text>
</g></g><g
     id="_x31__Tests"
     transform="matrix(0.96576275,0,0,0.95735405,-7.4223698,-9.812879)"><g
       id="g102"
       transform="matrix(0.1,0,0,-0.1,0,183)"><path
         style="fill:none;stroke:#7cb942;stroke-width:20;stroke-miterlimit:10;stroke-dasharray:none"
         id="path104"
         d="m 533.31,475.351 c -73.535,0 -159.121,119.531 -196.25,230.273 -15.127,45.371 -17.939,63.906 -15.85,104.424 5.581,85.127 55.854,154.053 134.478,184.248 25.278,9.727 51.528,14.648 78.027,14.648 103.647,0 192.896,-75.527 212.212,-179.59 C 762.099,745.643 706.03,622.01 645.068,548.153 617.661,514.941 576.02,475.351 533.31,475.351 Z"
         stroke-miterlimit="10"
         inkscape:connector-curvature="0" /><path
         style="fill:none;stroke:#7cb942;stroke-width:20;stroke-miterlimit:10;stroke-dasharray:none"
         id="path106"
         d="m 532.666,22.07 c -53.125,0 -100.347,3.467 -126.323,9.258 -99.561,23.535 -174.526,82.959 -195.527,155.049 -22.256,77.227 -4.209,175.566 45.986,250.508 23.452,34.59 92.461,105.146 117.036,105.146 11.084,0 26.743,-22.227 37.925,-40.879 27.529,-46.094 85.132,-97.002 108.032,-101.357 4.136,-0.879 8.228,-1.318 12.305,-1.318 36.909,0 77.788,33.984 121.509,101.006 l 35.771,53.252 37.031,-25.84 c 62.134,-42.1 117.505,-123.496 134.761,-198.037 13.452,-59.424 6.064,-138.75 -16.479,-176.787 C 812.247,96.163 750.88,54.044 671.856,33.419 645.063,26.309 593.047,22.07 532.666,22.07 Z"
         stroke-miterlimit="10"
         inkscape:connector-curvature="0" /></g><text
       id="text108"
       transform="translate(16.9775,201.5801)"><tspan
         id="tspan110"
         font-size="14"
         y="0"
         x="0"
         style="font-size:14px;font-family:OpenSans-Bold;fill:#019d57">Your Tests</tspan><tspan
         id="tspan112"
         font-size="12"
         y="14.4"
         x="-4.2329998"
         style="font-size:12px;font-family:OpenSans-Bold;fill:#7cb942">written in C#,</tspan><tspan
         id="tspan114"
         font-size="12"
         y="28.799999"
         x="-9.2919998"
         style="font-size:12px;font-family:OpenSans-Bold;fill:#7cb942"> JS, Python, etc.</tspan></text>
</g><g
     id="_x31_-2"
     transform="matrix(0.96576275,0,0,0.95735405,-7.4223698,-9.812879)"><g
       id="g117"><g
         id="g119"><line
           id="line121"
           y2="158"
           x2="241.42"
           y1="158"
           x1="101.639"
           stroke-miterlimit="10"
           style="fill:none;stroke:#f5eb07;stroke-width:2;stroke-miterlimit:10" /><g
           id="g123"><polygon
             id="polygon125"
             points="103.62,154.973 103.62,160.783 92.779,157.88 "
             style="fill:#f5eb07" /></g><g
           id="g127"><polygon
             id="polygon129"
             points="239.438,154.973 239.438,160.783 250.279,157.88 "
             style="fill:#f5eb07" /></g></g></g><text
       id="text131"
       transform="translate(119.8438,152.3838)"><tspan
         id="tspan133"
         font-size="12"
         y="0"
         x="0"
         style="font-size:12px;font-family:OpenSans-Bold;fill:#019d57">JsonWireProtocol</tspan><tspan
         id="tspan135"
         font-size="12"
         y="18"
         x="21.422001"
         style="font-size:12px;font-family:OpenSans-Bold;fill:#019d57">over HTTP</tspan></text>
</g></svg>